<?xml version="1.0" encoding="UTF-8"?>
<svg id="Calque_1" data-name="Calque 1" xmlns="http://www.w3.org/2000/svg" viewBox="0 0 472.98 472.98">
  <defs>
    <style>
      .cls-1 {
        fill: #fff;
      }

      .cls-2, .cls-3, .cls-4 {
        fill: none;
        stroke: #000;
        stroke-miterlimit: 10;
      }

      .cls-5 {
        font-family: MontserratRoman-Black, Montserrat;
        font-size: 24px;
        font-variation-settings: 'wght' 900;
        font-weight: 800;
      }

      .cls-3 {
        stroke-width: .25px;
      }

      .cls-6 {
        letter-spacing: 0em;
      }

      .cls-7 {
        letter-spacing: -.01em;
      }

      .cls-4 {
        stroke-width: 9px;
      }

      .cls-8 {
        letter-spacing: 0em;
      }
    </style>
  </defs>
  <g>
    <path class="cls-3" d="m50.51,183.91c3.86-27.25,20.75-54.9,36.09-73.85,3.26-4.03,6.69-7.86,10.14-11.72h0c27.31-27.74,63.75-54.74,104.39-55.69"/>
    <g>
      <path class="cls-4" d="m359.29,95.11c-61.19-16.76-129.23,25.11-172.37,64.84-6.33,5.83-12.35,11.88-18.39,18.01l3.17,3.09h0c45.55,44.33,91.98,87.82,139.4,130.14,13.24,11.82,26.57,23.55,40.16,34.98h0s0,0,0,0h0s0,0,0,0h0s0,0,0,0h0s0,0,0,0h0c-49.3-41.49-96.44-85.69-143.11-130.08-13.28-12.63-26.49-25.33-39.61-38.13-40.32,45.13-84.54,111.15-69.24,175.17"/>
      <path class="cls-4" d="m94.92,99.34l-.18.08-.1.16v.23c5.21,11.73,18.13,22.07,26.85,31.11,15.39,15.96,31.17,31.55,47.04,47.04,43.53-44.18,102.25-87.3,167.3-86.15,31.28.55,59.34,15.98,70.84,45.91"/>
      <path class="cls-4" d="m107.4,373.64c-31.84-56.64,8.38-131.72,44.39-176.27,5.39-6.66,11.02-13.03,16.73-19.42-15.87-15.49-31.65-31.08-47.04-47.04-8.68-9-21.71-19.39-26.86-31.11v-.23s.11-.16.11-.16l.18-.08"/>
      <path class="cls-4" d="m330.83,404.22c-25.8,12.12-63.14,19.5-78.84-9.3-19.31-35.43,11.35-80.81,34.11-106.27,24.13-24.5,59.14-50.71,95.78-47.09,9.91.98,17.55,4.35,23.25,9.34,13.42,11.75,13.64,30.39,13.7,35.77.16,12.98-4.17,23.16-7.39,29.1"/>
      <path class="cls-4" d="m209.73,426.02c-24.91.02-47.75-8.68-61.15-33.1-28.48-51.91,8.19-120.05,40.69-160.8,5.14-6.44,10.58-12.56,16.07-18.7h0c40.82-41.44,99.45-85.06,161.27-79.07,38.89,3.77,56.98,29.69,61.15,60.68"/>
      <path class="cls-4" d="m71.43,335.91c-10.51-17.85-10.51-38.85-8.51-58.85,5-30,16-55,32-81l3-3c37-58,87-103,150-126,31.69-10.56,71.96-13.86,100.11,5.25"/>
      <path class="cls-4" d="m351.25,346.17c-72.92,7.42-151.09-20.37-211.8-59.28-32.17-20.62-92.04-66.62-86.93-113.11.63-5.73.98-8.64,3.75-14.34"/>
      <path class="cls-4" d="m351.25,346.17c-33.8,21.21-72.84,33.63-112.57,36.84-37.46,3.02-76.21-2-110.69-17.35-30.83-13.73-58.59-36.56-73.45-67.34"/>
      <path class="cls-4" d="m351.25,346.17c-23.77,29.68-54.59,54.17-90.69,66.93-31.07,10.99-65.66,12.76-96.9,1.38-26.93-9.82-43.96-21.18-59.42-45.01"/>
      <path class="cls-4" d="m351.25,346.17c-8.33,29.25-24.88,59.49-53.64,72.75"/>
      <path class="cls-4" d="m351.25,346.17c3.57,8.72,16.7,36.95,3.61,43.85"/>
      <path class="cls-4" d="m351.25,346.17c13.21,3.21,40.21,9.88,49.64-4.74"/>
      <path class="cls-4" d="m351.25,346.17c29.45-11.22,58.24-30.35,72.34-59.5"/>
      <path class="cls-4" d="m351.25,346.17c28.75-26.23,51.57-59.22,62.89-96.67,9.83-32.53,10.66-68.25-1.49-100.29-5.98-15.76-15.01-30.03-26.32-42.21"/>
      <path class="cls-4" d="m351.25,346.17c18.59-34.85,27.93-74.29,28.73-113.7.78-37.98-6.24-76.71-22.76-111.07-14.57-30.32-36.83-59.61-68.27-72.91-10.68-4.52-21.79-7.42-32.39-8.98"/>
      <path class="cls-4" d="m351.25,346.17c-.5-72.17-34.75-146.52-75.32-204.71-19.08-27.37-41.83-54.41-70.21-72.55-15.84-10.13-37.77-19.66-56.16-10.36"/>
    </g>
  </g>
  <circle class="cls-4" cx="236.49" cy="234.5" r="196.02"/>
  <circle class="cls-2" cx="236.49" cy="236.49" r="235.99"/>
  <g>
    <text class="cls-5" transform="translate(256.81 445.99) rotate(-173.37)"><tspan x="0" y="0">L</tspan><tspan class="cls-7" x="14.81" y="0">e</tspan><tspan class="cls-8" x="30.12" y="0">a</tspan><tspan class="cls-6" x="45.7" y="0">der</tspan></text>
    <text class="cls-5" transform="translate(139.25 423.41) rotate(-140.64)"><tspan x="0" y="0">L</tspan><tspan class="cls-7" x="14.81" y="0">e</tspan><tspan class="cls-8" x="30.12" y="0">a</tspan><tspan class="cls-6" x="45.7" y="0">der</tspan></text>
    <text class="cls-5" transform="translate(52.56 340.84) rotate(-107.91)"><tspan x="0" y="0">L</tspan><tspan class="cls-7" x="14.81" y="0">e</tspan><tspan class="cls-8" x="30.12" y="0">a</tspan><tspan class="cls-6" x="45.7" y="0">der</tspan></text>
    <text class="cls-5" transform="translate(24.26 224.52) rotate(-75.18)"><tspan x="0" y="0">L</tspan><tspan class="cls-7" x="14.81" y="0">e</tspan><tspan class="cls-8" x="30.12" y="0">a</tspan><tspan class="cls-6" x="45.7" y="0">der</tspan></text>
    <text class="cls-5" transform="translate(63.35 111.37) rotate(-42.46)"><tspan x="0" y="0">L</tspan><tspan class="cls-7" x="14.81" y="0">e</tspan><tspan class="cls-8" x="30.12" y="0">a</tspan><tspan class="cls-6" x="45.7" y="0">der</tspan></text>
    <text class="cls-5" transform="translate(157.41 37.31) rotate(-9.73)"><tspan x="0" y="0">L</tspan><tspan class="cls-7" x="14.81" y="0">e</tspan><tspan class="cls-8" x="30.12" y="0">a</tspan><tspan class="cls-6" x="45.7" y="0">der</tspan></text>
    <text class="cls-5" transform="translate(276.58 25.86) rotate(23)"><tspan x="0" y="0">L</tspan><tspan class="cls-7" x="14.81" y="0">e</tspan><tspan class="cls-8" x="30.12" y="0">a</tspan><tspan class="cls-6" x="45.7" y="0">der</tspan></text>
    <text class="cls-5" transform="translate(383.01 80.65) rotate(55.72)"><tspan x="0" y="0">L</tspan><tspan class="cls-7" x="14.81" y="0">e</tspan><tspan class="cls-8" x="30.12" y="0">a</tspan><tspan class="cls-6" x="45.7" y="0">der</tspan></text>
    <text class="cls-5" transform="translate(442.93 184.29) rotate(88.45)"><tspan x="0" y="0">L</tspan><tspan class="cls-7" x="14.81" y="0">e</tspan><tspan class="cls-8" x="30.12" y="0">a</tspan><tspan class="cls-6" x="45.7" y="0">der</tspan></text>
    <text class="cls-5" transform="translate(437.31 303.87) rotate(121.18)"><tspan x="0" y="0">L</tspan><tspan class="cls-7" x="14.81" y="0">e</tspan><tspan class="cls-8" x="30.12" y="0">a</tspan><tspan class="cls-6" x="45.7" y="0">der</tspan></text>
    <text class="cls-5" transform="translate(367.92 401.43) rotate(153.91)"><tspan x="0" y="0">L</tspan><tspan class="cls-7" x="14.81" y="0">e</tspan><tspan class="cls-8" x="30.12" y="0">a</tspan><tspan class="cls-6" x="45.7" y="0">der</tspan></text>
  </g>
  <polygon class="cls-1" points="355.9 210.08 74.02 248.21 74.02 151.69 357.22 113.28 355.9 210.08"/>
  <g>
    <path d="m95.94,235.14v-56.66c-6.22.79-9.33,1.19-15.56,1.98v-20.06c16.34-2.07,32.68-4.14,49.02-6.21v20.04c-6.22.79-9.33,1.19-15.56,1.98v56.64c-7.16.92-10.75,1.38-17.91,2.3Z"/>
    <path d="m145.95,228.71c-5.67-24.83-11.33-49.65-17-74.48,7.38-.94,11.06-1.4,18.44-2.34,4.58,20.98,9.16,41.96,13.74,62.94l-9.26,1.19c4.86-22.18,9.71-44.36,14.57-66.54,6.59-.84,9.88-1.25,16.47-2.09,4.53,20.97,9.06,41.93,13.58,62.9-3.55.46-5.33.68-8.88,1.14,4.78-22.15,9.56-44.3,14.34-66.46,6.8-.86,10.2-1.29,17-2.16-5.67,26.23-11.34,52.46-17,78.69-7.68.99-11.52,1.48-19.2,2.47-3.69-17.18-7.39-34.35-11.08-51.53,2.06-.26,3.1-.39,5.16-.66-3.9,18.15-7.79,36.3-11.69,54.45-7.68.99-11.52,1.48-19.2,2.47Z"/>
    <path d="m222.91,218.81v-76.49c7.16-.91,10.75-1.36,17.91-2.27v76.46c-7.16.92-10.75,1.38-17.91,2.3Z"/>
    <path d="m249.47,215.4v-76.45c5.89-.75,8.83-1.12,14.72-1.87,9,14.35,18.01,28.71,27.02,43.05-2.73.35-4.1.52-6.83.87v-46.49c6.98-.89,10.47-1.33,17.45-2.21v76.35c-5.89.76-8.83,1.14-14.72,1.89-9.01-14.34-18.02-28.69-27.02-43.04,2.73-.35,4.1-.52,6.83-.87v46.51c-6.98.9-10.47,1.35-17.46,2.24Z"/>
    <path d="m308.29,207.84v-15.81c6.4-9.32,12.8-18.65,19.2-27.97,1.21-1.82,2.11-3.39,2.69-4.7.58-1.31.97-2.47,1.18-3.48.2-1.01.3-1.95.3-2.82,0-1.89-.43-3.31-1.29-4.25-.86-.94-2.15-1.31-3.87-1.09-1.57.2-3.06.99-4.48,2.37-1.42,1.38-2.53,3.28-3.34,5.71-5.4-3.19-8.1-4.79-13.51-7.99,1.92-5.48,4.81-10.1,8.65-13.86,3.84-3.76,8.63-6,14.34-6.73,4.2-.53,7.92-.02,11.15,1.53,3.24,1.55,5.77,3.99,7.59,7.32,1.82,3.33,2.73,7.43,2.73,12.29,0,2.47-.22,4.97-.64,7.49-.43,2.53-1.3,5.23-2.62,8.13-1.32,2.89-3.26,6.18-5.84,9.85-5.77,8.28-8.65,12.42-14.42,20.7-1.12-3.43-1.68-5.15-2.81-8.58,11.02-1.41,16.53-2.12,27.55-3.53v19.94c-14.19,1.82-28.38,3.65-42.57,5.47Z"/>
  </g>
</svg>